Coordinates

Units are S.I. units (second, meters, Newtons, ...)
If the header above contains a line with 'inDegrees', this indicates whether rotational values are in degrees (yes) or radians (no).

inDegrees=no
nColumns=21
nRows=10
DataType=double
version=3
OpenSimVersion=4.6-2026-03-31-d6972f9e6
endheader
time	/jointset/ground_pelvis/pelvis_tilt/value	/jointset/ground_pelvis/pelvis_list/value	/jointset/ground_pelvis/pelvis_rotation/value	/jointset/ground_pelvis/pelvis_tx/value	/jointset/ground_pelvis/pelvis_ty/value	/jointset/ground_pelvis/pelvis_tz/value	/jointset/hip_r/hip_flexion_r/value	/jointset/hip_r/hip_adduction_r/value	/jointset/hip_r/hip_rotation_r/value	/jointset/walker_knee_r/knee_angle_r/value	/jointset/patellofemoral_r/knee_angle_r_beta/value	/jointset/ankle_r/ankle_angle_r/value	/jointset/subtalar_r/subtalar_angle_r/value	/jointset/hip_l/hip_flexion_l/value	/jointset/hip_l/hip_adduction_l/value	/jointset/hip_l/hip_rotation_l/value	/jointset/walker_knee_l/knee_angle_l/value	/jointset/patellofemoral_l/knee_angle_l_beta/value	/jointset/ankle_l/ankle_angle_l/value	/jointset/subtalar_l/subtalar_angle_l/value
147.496	-0.07818005413159644	-0.08550334417047321	-0.06587155833891334	0.8558245498280391	0.9727421843513747	-0.2788406710394229	0.4100853545397369	0.1182993136142249	0.007821216575590973	0.8073913750821802	0.8073913764276843	0.3921037619194851	-0.08616941661526532	0.2227009325833456	-0.1427621190116735	0.04399828321829311	1.68614632059142	1.686146320601158	-0.2762910135310858	-0.3484598072750371
147.5	-0.08095045552471483	-0.08620066157732777	-0.06193932453739532	0.8548849570646784	0.9719886906462796	-0.279189678392949	0.4016601958170665	0.1168949500905823	0.004493219906408634	0.8082064991266797	0.8082065005398689	0.4029650656413945	-0.08101503609641235	0.2447839650053214	-0.1431405240230184	0.05230956029296146	1.698904045665644	1.698904045609241	-0.262612592982628	-0.3460352223587184
147.504	-0.08393956968261583	-0.08658906633646443	-0.05792721917702316	0.8540033801343581	0.9714543630705565	-0.2795176146462629	0.3924562185842857	0.1152781487389198	0.001418374975599782	0.8069967688727764	0.8069967702938949	0.4126523901777633	-0.07606849896578095	0.2670975000232752	-0.1430113915715648	0.06055199917604372	1.709789267150031	1.709789267005959	-0.2485875119400814	-0.3418025360001343
147.508	-0.08709622868444575	-0.08668924136892678	-0.05396310901423969	0.8531829222016795	0.9711417558522603	-0.2798118803674663	0.3824815074718041	0.1135436553282065	-0.001237144180547054	0.8038913500326101	0.803891351408073	0.4210567400791385	-0.07151450352472054	0.289494282623028	-0.142457700431625	0.06852872505984585	1.718760504335691	1.718760504081198	-0.2343600554497166	-0.3358994043834349
147.512	-0.09036937702260431	-0.08652229370322803	-0.05016799583389531	0.8524261184834606	0.9710524888155514	-0.2800609445489918	0.3717483833460084	0.1117766004435237	-0.003320065497125198	0.7990233064364314	0.7990233077219513	0.4280620801603136	-0.06752005446400206	0.3118270929939998	-0.1415646220533535	0.0760572892977753	1.725785147057498	1.725785146670388	-0.220068491253536	-0.3284903927825686
147.516	-0.09370991642304216	-0.08610880031726481	-0.04665072089379065	0.8517350080548783	0.9711871595940458	-0.2802548557060448	0.3602742571093165	0.1100486377502851	-0.004697430920629438	0.7925267470754698	0.7925267482382522	0.4335483599044014	-0.06422984518594856	0.3339531204883745	-0.1404157806677269	0.08297533814068407	1.730839904454955	1.730839903915765	-0.2058428594843455	-0.3197624535706122
147.52	-0.09707221524654497	-0.08546783088863967	-0.04350338700305353	0.8511112134177518	0.9715452643228604	-0.2803856751165675	0.3480822218954578	0.108414861232588	-0.005262963198678473	0.7845344815091173	0.7845344825287717	0.4373948855920454	-0.06176259148695078	0.3557376978465803	-0.1390894557764498	0.0891450792557049	1.733910921682138	1.73391092097654	-0.1918036920940472	-0.30992070141647
147.524	-0.1004152378087597	-0.08461600295032669	-0.0407976858754545	0.8505560224466414	0.9721251339817701	-0.2804478127860248	0.3352013357428894	0.1069116540789262	-0.004942123546878544	0.7751761693187038	0.7751761701867679	0.4394838814930667	-0.06020837680993257	0.3770572675186763	-0.1376549285720826	0.09445640938047717	1.73499356535497	1.734993564476025	-0.1780616319918846	-0.2991845706180664
147.528	-0.1037033983355271	-0.08356671549898796	-0.038582152311243	0.8500704664246608	0.9729238787403759	-0.2804382618105407	0.3216667163663659	0.1055555883883934	-0.003695900124013672	0.7645769472250882	0.7645769479433522	0.4397041493661523	-0.0596268913600058	0.3978016813558756	-0.1361692299299194	0.09882885159185054	1.734091964238676	1.734091963188532	-0.1647175469146393	-0.2877838581314504
147.532	-0.1069072780836928	-0.08232972101421154	-0.03688030539391153	0.8496553883057946	0.9739373290988838	-0.2803567331112018	0.3075196111065561	0.1043434533431127	-0.001523438919564312	0.7528565231897243	0.7528565237677809	0.4379547357360176	-0.06004642056169071	0.4178759984821009	-0.1346745499333823	0.1022125434345313	1.731218416409184	1.731218415199948	-0.1518626073623427	-0.2759540107235928
